<?xml version="1.0" encoding="UTF-8"?>
<svg width="70px" height="61px" viewBox="0 0 70 61" version="1.1" xmlns="http://www.w3.org/2000/svg" xmlns:xlink="http://www.w3.org/1999/xlink">
    <!-- Generator: Sketch Beta 50.1 (55040) - http://www.bohemiancoding.com/sketch -->
    <title>responsive</title>
    <desc>Created with Sketch Beta.</desc>
    <defs></defs>
    <g id="Page-1" stroke="none" stroke-width="1" fill="none" fill-rule="evenodd">
        <g id="responsive" fill="#000000" fill-rule="nonzero">
            <path d="M66.5,30.3333333 L65.3333333,30.3333333 L65.3333333,5.83333333 C65.3295417,2.61333333 62.72,0.00379166667 59.5,0 L10.5,0 C7.28,0.00379166667 4.67045833,2.61333333 4.66666667,5.83333333 L4.66666667,23.3333333 L3.5,23.3333333 C1.56697917,23.3333333 0,24.9003125 0,26.8333333 L0,57.1666667 C0,59.0996875 1.56697917,60.6666667 3.5,60.6666667 L47.8333333,60.6666667 C48.477625,60.6666667 49,60.1442917 49,59.5 C48.9962083,56.28 46.3866667,53.6704583 43.1666667,53.6666667 L39.6666667,53.6666667 L39.6666667,46.6666667 L53.6666667,46.6666667 L53.6666667,57.1666667 C53.6666667,59.0996875 55.2336458,60.6666667 57.1666667,60.6666667 L66.5,60.6666667 C68.4330208,60.6666667 70,59.0996875 70,57.1666667 L70,33.8333333 C70,31.9003125 68.4330208,30.3333333 66.5,30.3333333 Z M25.6666667,57.1666667 C25.6666667,57.8109583 25.1442917,58.3333333 24.5,58.3333333 L3.5,58.3333333 C2.85570833,58.3333333 2.33333333,57.8109583 2.33333333,57.1666667 L2.33333333,56 L25.6666667,56 L25.6666667,57.1666667 Z M25.6666667,53.6666667 L2.33333333,53.6666667 L2.33333333,26.8333333 C2.33333333,26.1890417 2.85570833,25.6666667 3.5,25.6666667 L24.5,25.6666667 C25.1442917,25.6666667 25.6666667,26.1890417 25.6666667,26.8333333 L25.6666667,53.6666667 Z M43.1666667,56 C44.6495,56.00175 45.9708958,56.9359583 46.4671667,58.3333333 L27.7853333,58.3333333 C27.9235833,57.9597083 27.9960625,57.5650833 28,57.1666667 L28,56 L43.1666667,56 Z M28,53.6666667 L28,46.6666667 L30.3333333,46.6666667 L30.3333333,53.6666667 L28,53.6666667 Z M32.6666667,53.6666667 L32.6666667,46.6666667 L37.3333333,46.6666667 L37.3333333,53.6666667 L32.6666667,53.6666667 Z M53.6666667,44.3333333 L28,44.3333333 L28,37.3333333 L53.6666667,37.3333333 L53.6666667,44.3333333 Z M53.6666667,33.8333333 L53.6666667,35 L28,35 L28,26.8333333 C27.9882652,25.1835132 26.7847691,23.3400121 24.5,23.3333333 L7,23.3333333 L7,5.83333333 C7,3.9003125 8.56697917,2.33333333 10.5,2.33333333 L59.5,2.33333333 C61.4330208,2.33333333 63,3.9003125 63,5.83333333 L63,30.3333333 L57.1666667,30.3333333 C55.2336458,30.3333333 53.6666667,31.9003125 53.6666667,33.8333333 Z M67.6666667,57.1666667 C67.6666667,57.8109583 67.1442917,58.3333333 66.5,58.3333333 L57.1666667,58.3333333 C56.522375,58.3333333 56,57.8109583 56,57.1666667 L56,56 L67.6666667,56 L67.6666667,57.1666667 Z M67.6666667,53.6666667 L56,53.6666667 L56,33.8333333 C56,33.1890417 56.522375,32.6666667 57.1666667,32.6666667 L66.5,32.6666667 C67.1442917,32.6666667 67.6666667,33.1890417 67.6666667,33.8333333 L67.6666667,53.6666667 Z" id="Shape"></path>
            <path d="M13.9405,37.534 C13.4849167,37.0785625 12.7464167,37.0785625 12.2908333,37.534 L7.34183333,42.483 C6.878375,42.9307083 6.86554167,43.6692083 7.31325,44.1326667 C7.76095833,44.596125 8.49945833,44.6089583 8.96291667,44.16125 C8.9726875,44.1519167 8.98216667,44.1422917 8.9915,44.1326667 L13.9405,39.1836667 C14.14875,38.8227292 13.7302083,38.1365833 13.9405,37.534 Z" id="Shape"></path>
            <path d="M20.9119167,37.534 C20.4598333,37.097375 19.7430625,37.097375 19.2908333,37.534 L14.3418333,42.483 C13.878375,42.9305625 13.8655417,43.6692083 14.31325,44.1326667 C14.7608125,44.596125 15.4994583,44.6089583 15.9629167,44.16125 C15.9726875,44.1519167 15.9821667,44.1422917 15.9915,44.1326667 L20.9405,39.1836667 C21.3880625,38.7202083 21.375375,37.9815625 20.9119167,37.534 Z" id="Shape"></path>
            <path d="M42.35875,12.0085 C41.9066667,11.571875 41.1898958,11.571875 40.7376667,12.0085 L29.1876667,23.5585 C28.7242083,24.0060625 28.711375,24.7447083 29.1589375,25.2081667 C29.6065,25.671625 30.3451458,25.6844583 30.8086042,25.2368958 C30.8151181,25.2306736 34.6746944,21.3710973 42.3873333,13.6581667 C42.8350417,13.1947083 42.8222083,12.4560625 42.35875,12.0085 Z" id="Shape"></path>
            <path d="M35.0670833,12.0085 C34.615,11.571875 33.8982292,11.571875 33.446,12.0085 L21.896,23.5585 C21.4325417,24.0060625 21.4197083,24.7447083 21.8672708,25.2081667 C22.3148333,25.671625 23.0534792,25.6844583 23.5169375,25.2368958 C23.5234514,25.2306736 27.3830277,21.3710973 35.0956667,13.6581667 C35.543375,13.1947083 35.5305417,12.4560625 35.0670833,12.0085 Z" id="Shape-Copy-2"></path>
            <path d="M49.6504167,12.0085 C49.1983333,11.571875 48.4815625,11.571875 48.0293333,12.0085 L36.4793333,23.5585 C36.015875,24.0060625 36.0030417,24.7447083 36.4506042,25.2081667 C36.8981667,25.671625 37.6368125,25.6844583 38.1002708,25.2368958 C38.1067848,25.2306736 41.9663611,21.3710973 49.679,13.6581667 C50.1267083,13.1947083 50.113875,12.4560625 49.6504167,12.0085 Z" id="Shape-Copy"></path>
            <path d="M64.27925,40.6921667 C63.8271667,40.2553958 63.11025,40.2553958 62.6581667,40.6921667 L59.3588333,43.9915 C58.895375,44.4392083 58.8825417,45.1777083 59.33025,45.6411667 C59.7779583,46.104625 60.5164583,46.1174583 60.9799167,45.66975 C60.9895417,45.6604167 60.9991667,45.6507917 61.0085,45.6411667 L64.3078333,42.3418333 C64.7555417,41.878375 64.7427083,41.139875 64.27925,40.6921667 Z" id="Shape"></path>
            <path d="M35.0233333,39.6666667 L35.0116667,39.6666667 C34.367375,39.669875 33.847625,40.194875 33.8508333,40.8391667 C33.8540417,41.4834583 34.3790417,42.0032083 35.0233333,42 C35.667625,42 36.19,41.477625 36.19,40.8333333 C36.19,40.1890417 35.667625,39.6666667 35.0233333,39.6666667 Z" id="Shape"></path>
            <path d="M37.3333333,4.66666667 L32.6666667,4.66666667 C32.022375,4.66666667 31.5,5.18904167 31.5,5.83333333 C31.5,6.477625 32.022375,7 32.6666667,7 L37.3333333,7 C37.977625,7 38.5,6.477625 38.5,5.83333333 C38.5,5.18904167 37.977625,4.66666667 37.3333333,4.66666667 Z" id="Shape"></path>
        </g>
    </g>
</svg>